<mxfile host="app.diagrams.net" agent="Mozilla/5.0 (Windows NT 10.0; Win64; x64) AppleWebKit/537.36 (KHTML, like Gecko) Chrome/139.0.0.0 Safari/537.36 Edg/139.0.0.0" version="28.1.1">
  <diagram name="Page-1" id="0OnJtpL-dXBo37pqXAB-">
    <mxGraphModel dx="1880" dy="1211" grid="1" gridSize="10" guides="1" tooltips="1" connect="1" arrows="1" fold="1" page="1" pageScale="1" pageWidth="850" pageHeight="1100" math="0" shadow="0">
      <root>
        <mxCell id="0" />
        <mxCell id="1" parent="0" />
        <mxCell id="YpYV2MjoBSTZjq_3htq--1" value="Content / Ops" style="whiteSpace=wrap;strokeWidth=2;" vertex="1" parent="1">
          <mxGeometry x="418" y="278" width="794" height="152" as="geometry" />
        </mxCell>
        <mxCell id="YpYV2MjoBSTZjq_3htq--2" value="Email Service (Brevo/Mailchimp)" style="whiteSpace=wrap;strokeWidth=2;" vertex="1" parent="1">
          <mxGeometry x="20" y="1218" width="230" height="283" as="geometry" />
        </mxCell>
        <mxCell id="YpYV2MjoBSTZjq_3htq--3" value="Analytics PostHog" style="whiteSpace=wrap;strokeWidth=2;" vertex="1" parent="1">
          <mxGeometry x="3460" y="1065" width="282" height="436" as="geometry" />
        </mxCell>
        <mxCell id="YpYV2MjoBSTZjq_3htq--4" value="Backend / Supabase" style="whiteSpace=wrap;strokeWidth=2;" vertex="1" parent="1">
          <mxGeometry x="427" y="1065" width="3014" height="307" as="geometry" />
        </mxCell>
        <mxCell id="YpYV2MjoBSTZjq_3htq--5" value="Postgres (Supabase)" style="whiteSpace=wrap;strokeWidth=2;" vertex="1" parent="1">
          <mxGeometry x="684" y="1243" width="2573" height="104" as="geometry" />
        </mxCell>
        <mxCell id="YpYV2MjoBSTZjq_3htq--6" value="Frontend App&#xa;Next.js + Tailwind&#xa;Tracking minimal / A11y / Perf" style="whiteSpace=wrap;strokeWidth=2;" vertex="1" parent="1">
          <mxGeometry x="1233" y="278" width="2184" height="737" as="geometry" />
        </mxCell>
        <mxCell id="YpYV2MjoBSTZjq_3htq--7" value="Client Device&#xa;Mobile-first" style="whiteSpace=wrap;strokeWidth=2;" vertex="1" parent="1">
          <mxGeometry x="2255" y="20" width="239" height="208" as="geometry" />
        </mxCell>
        <mxCell id="YpYV2MjoBSTZjq_3htq--8" value="User (Parent)" style="whiteSpace=wrap;strokeWidth=2;" vertex="1" parent="1">
          <mxGeometry x="2297" y="45" width="155" height="54" as="geometry" />
        </mxCell>
        <mxCell id="YpYV2MjoBSTZjq_3htq--9" value="Mobile Browser" style="whiteSpace=wrap;strokeWidth=2;" vertex="1" parent="1">
          <mxGeometry x="2290" y="149" width="169" height="54" as="geometry" />
        </mxCell>
        <mxCell id="YpYV2MjoBSTZjq_3htq--10" value="UI Intro&#xa;(copy implicit)" style="whiteSpace=wrap;strokeWidth=2;" vertex="1" parent="1">
          <mxGeometry x="2258" y="327" width="233" height="54" as="geometry" />
        </mxCell>
        <mxCell id="YpYV2MjoBSTZjq_3htq--11" value="UI Questions Q1-Q6&#xa;&amp;lt;=160 chars, 1/ecran" style="whiteSpace=wrap;strokeWidth=2;" vertex="1" parent="1">
          <mxGeometry x="1761" y="632" width="260" height="78" as="geometry" />
        </mxCell>
        <mxCell id="YpYV2MjoBSTZjq_3htq--12" value="UI Outro&#xa;(copy implicit)" style="whiteSpace=wrap;strokeWidth=2;" vertex="1" parent="1">
          <mxGeometry x="1942" y="760" width="240" height="54" as="geometry" />
        </mxCell>
        <mxCell id="YpYV2MjoBSTZjq_3htq--13" value="Email Capture&#xa;GDPR checkbox + input" style="whiteSpace=wrap;strokeWidth=2;" vertex="1" parent="1">
          <mxGeometry x="1268" y="888" width="260" height="78" as="geometry" />
        </mxCell>
        <mxCell id="YpYV2MjoBSTZjq_3htq--14" value="State Engine client&#xa;conform state_machine.md" style="whiteSpace=wrap;strokeWidth=2;" vertex="1" parent="1">
          <mxGeometry x="1761" y="480" width="260" height="102" as="geometry" />
        </mxCell>
        <mxCell id="YpYV2MjoBSTZjq_3htq--15" value="Remote Config Client&#xa;flags: adaptive_enabled, thresholds" style="whiteSpace=wrap;strokeWidth=2;" vertex="1" parent="1">
          <mxGeometry x="2722" y="864" width="260" height="126" as="geometry" />
        </mxCell>
        <mxCell id="YpYV2MjoBSTZjq_3htq--16" value="Tracking Client (PostHog)&#xa;quiz_started, quiz_completed" style="whiteSpace=wrap;strokeWidth=2;" vertex="1" parent="1">
          <mxGeometry x="3122" y="876" width="260" height="102" as="geometry" />
        </mxCell>
        <mxCell id="YpYV2MjoBSTZjq_3htq--17" value="UTM Parser&#xa;utm_source, utm_medium, utm_campaign" style="whiteSpace=wrap;strokeWidth=2;" vertex="1" parent="1">
          <mxGeometry x="2082" y="480" width="260" height="102" as="geometry" />
        </mxCell>
        <mxCell id="YpYV2MjoBSTZjq_3htq--18" value="Error/Latency UI&#xa;loader, debounce 500ms" style="whiteSpace=wrap;strokeWidth=2;" vertex="1" parent="1">
          <mxGeometry x="2412" y="888" width="260" height="78" as="geometry" />
        </mxCell>
        <mxCell id="YpYV2MjoBSTZjq_3htq--19" value="GET /quiz" style="whiteSpace=wrap;strokeWidth=2;" vertex="1" parent="1">
          <mxGeometry x="2311" y="1102" width="131" height="54" as="geometry" />
        </mxCell>
        <mxCell id="YpYV2MjoBSTZjq_3htq--20" value="POST /quiz" style="whiteSpace=wrap;strokeWidth=2;" vertex="1" parent="1">
          <mxGeometry x="1184" y="1102" width="139" height="54" as="geometry" />
        </mxCell>
        <mxCell id="YpYV2MjoBSTZjq_3htq--21" value="POST /lead" style="whiteSpace=wrap;strokeWidth=2;" vertex="1" parent="1">
          <mxGeometry x="929" y="1102" width="140" height="54" as="geometry" />
        </mxCell>
        <mxCell id="YpYV2MjoBSTZjq_3htq--22" value="/health" style="whiteSpace=wrap;strokeWidth=2;" vertex="1" parent="1">
          <mxGeometry x="3291" y="1268" width="114" height="54" as="geometry" />
        </mxCell>
        <mxCell id="YpYV2MjoBSTZjq_3htq--23" value="USERS" style="whiteSpace=wrap;strokeWidth=2;" vertex="1" parent="1">
          <mxGeometry x="719" y="1268" width="104" height="54" as="geometry" />
        </mxCell>
        <mxCell id="YpYV2MjoBSTZjq_3htq--24" value="QUIZ_SESSIONS" style="whiteSpace=wrap;strokeWidth=2;" vertex="1" parent="1">
          <mxGeometry x="872" y="1268" width="168" height="54" as="geometry" />
        </mxCell>
        <mxCell id="YpYV2MjoBSTZjq_3htq--25" value="QUIZ_ANSWERS" style="whiteSpace=wrap;strokeWidth=2;" vertex="1" parent="1">
          <mxGeometry x="1090" y="1268" width="169" height="54" as="geometry" />
        </mxCell>
        <mxCell id="YpYV2MjoBSTZjq_3htq--26" value="LEADS" style="whiteSpace=wrap;strokeWidth=2;" vertex="1" parent="1">
          <mxGeometry x="1309" y="1268" width="104" height="54" as="geometry" />
        </mxCell>
        <mxCell id="YpYV2MjoBSTZjq_3htq--27" value="COPY_TEXT" style="whiteSpace=wrap;strokeWidth=2;" vertex="1" parent="1">
          <mxGeometry x="1524" y="1268" width="143" height="54" as="geometry" />
        </mxCell>
        <mxCell id="YpYV2MjoBSTZjq_3htq--28" value="QUESTIONS" style="whiteSpace=wrap;strokeWidth=2;" vertex="1" parent="1">
          <mxGeometry x="2031" y="1268" width="140" height="54" as="geometry" />
        </mxCell>
        <mxCell id="YpYV2MjoBSTZjq_3htq--29" value="REMOTE_CONFIG" style="whiteSpace=wrap;strokeWidth=2;" vertex="1" parent="1">
          <mxGeometry x="3041" y="1268" width="181" height="54" as="geometry" />
        </mxCell>
        <mxCell id="YpYV2MjoBSTZjq_3htq--30" value="Nightly Export ETL&#xa;CSV/JSON" style="whiteSpace=wrap;strokeWidth=2;" vertex="1" parent="1">
          <mxGeometry x="462" y="1090" width="260" height="78" as="geometry" />
        </mxCell>
        <mxCell id="YpYV2MjoBSTZjq_3htq--31" value="Capture API" style="whiteSpace=wrap;strokeWidth=2;" vertex="1" parent="1">
          <mxGeometry x="3530" y="1102" width="144" height="54" as="geometry" />
        </mxCell>
        <mxCell id="YpYV2MjoBSTZjq_3htq--32" value="Dashboard Funnel" style="whiteSpace=wrap;strokeWidth=2;" vertex="1" parent="1">
          <mxGeometry x="3508" y="1268" width="187" height="54" as="geometry" />
        </mxCell>
        <mxCell id="YpYV2MjoBSTZjq_3htq--33" value="Alerts Slack webhook" style="whiteSpace=wrap;strokeWidth=2;" vertex="1" parent="1">
          <mxGeometry x="3495" y="1422" width="212" height="54" as="geometry" />
        </mxCell>
        <mxCell id="YpYV2MjoBSTZjq_3htq--34" value="Audience List" style="whiteSpace=wrap;strokeWidth=2;" vertex="1" parent="1">
          <mxGeometry x="57" y="1268" width="156" height="54" as="geometry" />
        </mxCell>
        <mxCell id="YpYV2MjoBSTZjq_3htq--35" value="Double Opt-in" style="whiteSpace=wrap;strokeWidth=2;" vertex="1" parent="1">
          <mxGeometry x="55" y="1422" width="160" height="54" as="geometry" />
        </mxCell>
        <mxCell id="YpYV2MjoBSTZjq_3htq--36" value="CSV Loader&#xa;(questions.csv, copy.csv)" style="whiteSpace=wrap;strokeWidth=2;" vertex="1" parent="1">
          <mxGeometry x="453" y="303" width="260" height="102" as="geometry" />
        </mxCell>
        <mxCell id="YpYV2MjoBSTZjq_3htq--37" value="Runbook Incident" style="whiteSpace=wrap;strokeWidth=2;" vertex="1" parent="1">
          <mxGeometry x="994" y="327" width="184" height="54" as="geometry" />
        </mxCell>
        <mxCell id="YpYV2MjoBSTZjq_3htq--38" value="Manual E2E Tests" style="whiteSpace=wrap;strokeWidth=2;" vertex="1" parent="1">
          <mxGeometry x="763" y="327" width="181" height="54" as="geometry" />
        </mxCell>
        <mxCell id="YpYV2MjoBSTZjq_3htq--39" value="" style="curved=1;startArrow=none;endArrow=block;exitX=0.5;exitY=1;entryX=0.5;entryY=0;rounded=0;" edge="1" parent="1" source="YpYV2MjoBSTZjq_3htq--8" target="YpYV2MjoBSTZjq_3htq--9">
          <mxGeometry relative="1" as="geometry">
            <Array as="points" />
          </mxGeometry>
        </mxCell>
        <mxCell id="YpYV2MjoBSTZjq_3htq--40" value="" style="curved=1;startArrow=none;endArrow=block;exitX=0.5;exitY=1;entryX=0.5;entryY=0;rounded=0;" edge="1" parent="1" source="YpYV2MjoBSTZjq_3htq--9" target="YpYV2MjoBSTZjq_3htq--10">
          <mxGeometry relative="1" as="geometry">
            <Array as="points" />
          </mxGeometry>
        </mxCell>
        <mxCell id="YpYV2MjoBSTZjq_3htq--41" value="" style="curved=1;startArrow=none;endArrow=block;exitX=0;exitY=0.84;entryX=0.5;entryY=0;rounded=0;" edge="1" parent="1" source="YpYV2MjoBSTZjq_3htq--10" target="YpYV2MjoBSTZjq_3htq--14">
          <mxGeometry relative="1" as="geometry">
            <Array as="points">
              <mxPoint x="1891" y="430" />
            </Array>
          </mxGeometry>
        </mxCell>
        <mxCell id="YpYV2MjoBSTZjq_3htq--42" value="" style="curved=1;startArrow=none;endArrow=block;exitX=1;exitY=0.67;entryX=0.66;entryY=0;rounded=0;" edge="1" parent="1" source="YpYV2MjoBSTZjq_3htq--10" target="YpYV2MjoBSTZjq_3htq--16">
          <mxGeometry relative="1" as="geometry">
            <Array as="points">
              <mxPoint x="3324" y="430" />
              <mxPoint x="3324" y="839" />
            </Array>
          </mxGeometry>
        </mxCell>
        <mxCell id="YpYV2MjoBSTZjq_3htq--43" value="" style="curved=1;startArrow=none;endArrow=block;exitX=0.25;exitY=1;entryX=0.5;entryY=0;rounded=0;" edge="1" parent="1" source="YpYV2MjoBSTZjq_3htq--10" target="YpYV2MjoBSTZjq_3htq--17">
          <mxGeometry relative="1" as="geometry">
            <Array as="points">
              <mxPoint x="2212" y="430" />
            </Array>
          </mxGeometry>
        </mxCell>
        <mxCell id="YpYV2MjoBSTZjq_3htq--44" value="" style="curved=1;startArrow=none;endArrow=block;exitX=0.5;exitY=1;entryX=0.5;entryY=0;rounded=0;" edge="1" parent="1" source="YpYV2MjoBSTZjq_3htq--14" target="YpYV2MjoBSTZjq_3htq--11">
          <mxGeometry relative="1" as="geometry">
            <Array as="points" />
          </mxGeometry>
        </mxCell>
        <mxCell id="YpYV2MjoBSTZjq_3htq--45" value="" style="curved=1;startArrow=none;endArrow=block;exitX=0.9;exitY=1;entryX=0.5;entryY=0;rounded=0;" edge="1" parent="1" source="YpYV2MjoBSTZjq_3htq--11" target="YpYV2MjoBSTZjq_3htq--12">
          <mxGeometry relative="1" as="geometry">
            <Array as="points">
              <mxPoint x="2062" y="735" />
            </Array>
          </mxGeometry>
        </mxCell>
        <mxCell id="YpYV2MjoBSTZjq_3htq--46" value="" style="curved=1;startArrow=none;endArrow=block;exitX=0;exitY=0.67;entryX=0.5;entryY=0;rounded=0;" edge="1" parent="1" source="YpYV2MjoBSTZjq_3htq--12" target="YpYV2MjoBSTZjq_3htq--13">
          <mxGeometry relative="1" as="geometry">
            <Array as="points">
              <mxPoint x="1398" y="839" />
            </Array>
          </mxGeometry>
        </mxCell>
        <mxCell id="YpYV2MjoBSTZjq_3htq--47" value="" style="curved=1;startArrow=none;endArrow=block;exitX=0.14;exitY=1;entryX=0.5;entryY=0;rounded=0;" edge="1" parent="1" source="YpYV2MjoBSTZjq_3htq--11" target="YpYV2MjoBSTZjq_3htq--20">
          <mxGeometry relative="1" as="geometry">
            <Array as="points">
              <mxPoint x="1736" y="735" />
              <mxPoint x="1736" y="1015" />
              <mxPoint x="1253" y="1040" />
            </Array>
          </mxGeometry>
        </mxCell>
        <mxCell id="YpYV2MjoBSTZjq_3htq--48" value="" style="curved=1;startArrow=none;endArrow=block;exitX=0.5;exitY=1;entryX=0.5;entryY=0;rounded=0;" edge="1" parent="1" source="YpYV2MjoBSTZjq_3htq--13" target="YpYV2MjoBSTZjq_3htq--21">
          <mxGeometry relative="1" as="geometry">
            <Array as="points">
              <mxPoint x="1398" y="1015" />
              <mxPoint x="999" y="1040" />
            </Array>
          </mxGeometry>
        </mxCell>
        <mxCell id="YpYV2MjoBSTZjq_3htq--49" value="" style="curved=1;startArrow=none;endArrow=block;exitX=0.5;exitY=1;entryX=0.5;entryY=0;rounded=0;" edge="1" parent="1" source="YpYV2MjoBSTZjq_3htq--10" target="YpYV2MjoBSTZjq_3htq--19">
          <mxGeometry relative="1" as="geometry">
            <Array as="points">
              <mxPoint x="2377" y="430" />
            </Array>
          </mxGeometry>
        </mxCell>
        <mxCell id="YpYV2MjoBSTZjq_3htq--50" value="" style="curved=1;startArrow=none;endArrow=block;exitX=0.5;exitY=1;entryX=1;entryY=0.26;rounded=0;" edge="1" parent="1" source="YpYV2MjoBSTZjq_3htq--19" target="YpYV2MjoBSTZjq_3htq--28">
          <mxGeometry relative="1" as="geometry">
            <Array as="points">
              <mxPoint x="2377" y="1243" />
            </Array>
          </mxGeometry>
        </mxCell>
        <mxCell id="YpYV2MjoBSTZjq_3htq--51" value="" style="curved=1;startArrow=none;endArrow=block;exitX=0;exitY=0.62;entryX=0.91;entryY=0;rounded=0;" edge="1" parent="1" source="YpYV2MjoBSTZjq_3htq--19" target="YpYV2MjoBSTZjq_3htq--27">
          <mxGeometry relative="1" as="geometry">
            <Array as="points">
              <mxPoint x="1710" y="1193" />
              <mxPoint x="1710" y="1243" />
            </Array>
          </mxGeometry>
        </mxCell>
        <mxCell id="YpYV2MjoBSTZjq_3htq--52" value="" style="curved=1;startArrow=none;endArrow=block;exitX=0;exitY=0.78;entryX=0.5;entryY=0;rounded=0;" edge="1" parent="1" source="YpYV2MjoBSTZjq_3htq--20" target="YpYV2MjoBSTZjq_3htq--24">
          <mxGeometry relative="1" as="geometry">
            <Array as="points">
              <mxPoint x="956" y="1193" />
            </Array>
          </mxGeometry>
        </mxCell>
        <mxCell id="YpYV2MjoBSTZjq_3htq--53" value="" style="curved=1;startArrow=none;endArrow=block;exitX=0.26;exitY=1;entryX=0.5;entryY=0;rounded=0;" edge="1" parent="1" source="YpYV2MjoBSTZjq_3htq--20" target="YpYV2MjoBSTZjq_3htq--25">
          <mxGeometry relative="1" as="geometry">
            <Array as="points">
              <mxPoint x="1174" y="1193" />
            </Array>
          </mxGeometry>
        </mxCell>
        <mxCell id="YpYV2MjoBSTZjq_3htq--54" value="" style="curved=1;startArrow=none;endArrow=block;exitX=1;exitY=0.73;entryX=0.5;entryY=0;rounded=0;" edge="1" parent="1" source="YpYV2MjoBSTZjq_3htq--21" target="YpYV2MjoBSTZjq_3htq--26">
          <mxGeometry relative="1" as="geometry">
            <Array as="points">
              <mxPoint x="1361" y="1193" />
            </Array>
          </mxGeometry>
        </mxCell>
        <mxCell id="YpYV2MjoBSTZjq_3htq--55" value="" style="curved=1;startArrow=none;endArrow=block;exitX=1;exitY=0.6;entryX=0.65;entryY=0;rounded=0;" edge="1" parent="1" source="YpYV2MjoBSTZjq_3htq--19" target="YpYV2MjoBSTZjq_3htq--29">
          <mxGeometry relative="1" as="geometry">
            <Array as="points">
              <mxPoint x="3184" y="1193" />
              <mxPoint x="3184" y="1243" />
            </Array>
          </mxGeometry>
        </mxCell>
        <mxCell id="YpYV2MjoBSTZjq_3htq--56" value="" style="curved=1;startArrow=none;endArrow=block;exitX=0.5;exitY=1;entryX=0.5;entryY=0;rounded=0;" edge="1" parent="1" source="YpYV2MjoBSTZjq_3htq--16" target="YpYV2MjoBSTZjq_3htq--31">
          <mxGeometry relative="1" as="geometry">
            <Array as="points">
              <mxPoint x="3252" y="1015" />
              <mxPoint x="3601" y="1040" />
            </Array>
          </mxGeometry>
        </mxCell>
        <mxCell id="YpYV2MjoBSTZjq_3htq--57" value="" style="curved=1;startArrow=none;endArrow=block;exitX=0.5;exitY=1;entryX=0.5;entryY=0;rounded=0;" edge="1" parent="1" source="YpYV2MjoBSTZjq_3htq--31" target="YpYV2MjoBSTZjq_3htq--32">
          <mxGeometry relative="1" as="geometry">
            <Array as="points" />
          </mxGeometry>
        </mxCell>
        <mxCell id="YpYV2MjoBSTZjq_3htq--58" value="" style="curved=1;startArrow=none;endArrow=block;exitX=0.5;exitY=1;entryX=0.5;entryY=0;rounded=0;" edge="1" parent="1" source="YpYV2MjoBSTZjq_3htq--32" target="YpYV2MjoBSTZjq_3htq--33">
          <mxGeometry relative="1" as="geometry">
            <Array as="points" />
          </mxGeometry>
        </mxCell>
        <mxCell id="YpYV2MjoBSTZjq_3htq--59" value="" style="curved=1;startArrow=none;endArrow=block;exitX=0;exitY=0.75;entryX=1;entryY=0.36;rounded=0;" edge="1" parent="1" source="YpYV2MjoBSTZjq_3htq--21" target="YpYV2MjoBSTZjq_3htq--34">
          <mxGeometry relative="1" as="geometry">
            <Array as="points">
              <mxPoint x="664" y="1193" />
              <mxPoint x="664" y="1243" />
            </Array>
          </mxGeometry>
        </mxCell>
        <mxCell id="YpYV2MjoBSTZjq_3htq--60" value="" style="curved=1;startArrow=none;endArrow=block;exitX=0.5;exitY=1;entryX=0.5;entryY=0;rounded=0;" edge="1" parent="1" source="YpYV2MjoBSTZjq_3htq--34" target="YpYV2MjoBSTZjq_3htq--35">
          <mxGeometry relative="1" as="geometry">
            <Array as="points" />
          </mxGeometry>
        </mxCell>
        <mxCell id="YpYV2MjoBSTZjq_3htq--61" value="" style="curved=1;startArrow=none;endArrow=block;exitX=0.82;exitY=1;entryX=0;entryY=0.32;rounded=0;" edge="1" parent="1" source="YpYV2MjoBSTZjq_3htq--36" target="YpYV2MjoBSTZjq_3htq--28">
          <mxGeometry relative="1" as="geometry">
            <Array as="points">
              <mxPoint x="709" y="430" />
              <mxPoint x="709" y="1015" />
              <mxPoint x="1730" y="1040" />
              <mxPoint x="1730" y="1243" />
            </Array>
          </mxGeometry>
        </mxCell>
        <mxCell id="YpYV2MjoBSTZjq_3htq--62" value="" style="curved=1;startArrow=none;endArrow=block;exitX=0.45;exitY=1;entryX=0.22;entryY=0;rounded=0;" edge="1" parent="1" source="YpYV2MjoBSTZjq_3htq--36" target="YpYV2MjoBSTZjq_3htq--27">
          <mxGeometry relative="1" as="geometry">
            <Array as="points">
              <mxPoint x="563" y="430" />
              <mxPoint x="563" y="1015" />
              <mxPoint x="1518" y="1040" />
              <mxPoint x="1518" y="1243" />
            </Array>
          </mxGeometry>
        </mxCell>
        <mxCell id="YpYV2MjoBSTZjq_3htq--63" value="" style="curved=1;startArrow=none;endArrow=block;exitX=0.5;exitY=1;entryX=0.47;entryY=0;rounded=0;" edge="1" parent="1" source="YpYV2MjoBSTZjq_3htq--37" target="YpYV2MjoBSTZjq_3htq--29">
          <mxGeometry relative="1" as="geometry">
            <Array as="points">
              <mxPoint x="1086" y="430" />
              <mxPoint x="3437" y="455" />
              <mxPoint x="3437" y="1015" />
              <mxPoint x="3121" y="1040" />
              <mxPoint x="3121" y="1243" />
            </Array>
          </mxGeometry>
        </mxCell>
        <mxCell id="YpYV2MjoBSTZjq_3htq--64" value="" style="curved=1;startArrow=none;endArrow=block;exitX=0.5;exitY=1;entryX=0;entryY=0.27;rounded=0;" edge="1" parent="1" source="YpYV2MjoBSTZjq_3htq--38" target="YpYV2MjoBSTZjq_3htq--14">
          <mxGeometry relative="1" as="geometry">
            <Array as="points">
              <mxPoint x="854" y="430" />
              <mxPoint x="1472" y="455" />
            </Array>
          </mxGeometry>
        </mxCell>
        <mxCell id="YpYV2MjoBSTZjq_3htq--65" value="" style="curved=1;startArrow=none;endArrow=block;exitX=0.5;exitY=1;entryX=0;entryY=0.19;rounded=0;" edge="1" parent="1" source="YpYV2MjoBSTZjq_3htq--15" target="YpYV2MjoBSTZjq_3htq--29">
          <mxGeometry relative="1" as="geometry">
            <Array as="points">
              <mxPoint x="2852" y="1243" />
            </Array>
          </mxGeometry>
        </mxCell>
        <mxCell id="YpYV2MjoBSTZjq_3htq--66" value="" style="curved=1;startArrow=none;endArrow=block;exitX=1;exitY=0.66;entryX=0;entryY=0.26;rounded=0;" edge="1" parent="1" source="YpYV2MjoBSTZjq_3htq--12" target="YpYV2MjoBSTZjq_3htq--16">
          <mxGeometry relative="1" as="geometry">
            <Array as="points">
              <mxPoint x="2779" y="839" />
            </Array>
          </mxGeometry>
        </mxCell>
        <mxCell id="YpYV2MjoBSTZjq_3htq--67" value="" style="curved=1;startArrow=none;endArrow=block;rounded=0;" edge="1" parent="1" source="YpYV2MjoBSTZjq_3htq--30" target="YpYV2MjoBSTZjq_3htq--5">
          <mxGeometry relative="1" as="geometry">
            <Array as="points" />
          </mxGeometry>
        </mxCell>
      </root>
    </mxGraphModel>
  </diagram>
</mxfile>
